<svg xmlns="http://www.w3.org/2000/svg" viewBox="0 0 169.06 36.64"><defs><style>.cls-1{fill:#0098c1;}.cls-2{fill:#99de85;}.cls-3{fill:#fff;}</style></defs><g id="Layer_2" data-name="Layer 2"><g id="Layer_1-2" data-name="Layer 1"><ellipse class="cls-1" cx="17.2" cy="4.33" rx="4.25" ry="4.33"/><path class="cls-1" d="M18.88,9.58,17.45,35.05c0,.08-.11.15-.25.15h0c-.13,0-.24-.07-.24-.15L15.53,9.58a9,9,0,0,0,1.67.16A9,9,0,0,0,18.88,9.58Z"/><path class="cls-2" d="M17.46,29.83H17l-.24-.06-1-.26c-3.76-1-7.07-2.07-7.07-4.67,0-1.6,1.27-2.63,3.12-3.41.56.24,1.2.47,1.95.71.55.17,1.15.34,1.89.54l.19.05a24.8,24.8,0,0,0-3.21,1c-1.48.64-1.5,1.07-1.5,1.07-.93,1.63,2.3,3.35,5.12,4.5l1,.4h0Z"/><path class="cls-2" d="M25.41,17.39c0,1.49-1.1,2.49-2.76,3.25-.55-.22-1.19-.44-1.95-.67l-1.88-.52-.19-.05a22.49,22.49,0,0,0,2.84-.94C23,17.81,23,17.39,23,17.39c.64-1.11-1.68-2-4.51-2.88-.82-.25-1.69-.5-2.54-.74l-.25-.07-.41-.12-1-.29-.32-.1-.06,0-.19-.06-.32-.1-.22-.08L13,12.87l-.51-.18a3.78,3.78,0,0,1-2,.5c-1.39,0-2.52-.57-2.52-1.26s.76-1,1.79-1.2a4.33,4.33,0,0,1,.73-.05h.2a5.24,5.24,0,0,1,2,.37,39.36,39.36,0,0,0,4.64,1.41C21.48,13.54,25.41,14.56,25.41,17.39Z"/><path class="cls-2" d="M25.79,24.84c0,2.6-3.31,3.67-7.08,4.67l-1,.26-.24.06H17l.25-.09h0l1-.4c2.82-1.15,6.05-2.87,5.12-4.5,0,0,0-.43-1.5-1.07a24.8,24.8,0,0,0-3.21-1l-1.55-.41L15.77,22c-.64-.17-1.27-.35-1.87-.53a22.1,22.1,0,0,1-2.15-.8C10.1,19.87,9,18.88,9,17.39c0-1.84,1.66-2.92,4-3.74.89.29,1.92.59,2.93.87-2.81.86-5.1,1.77-4.46,2.87,0,0,0,.42,1.5,1.07a22.49,22.49,0,0,0,2.84.94c.62.18,1.27.34,1.91.51l.95.25c.64.17,1.26.33,1.86.51a22.75,22.75,0,0,1,2.17.76C24.52,22.21,25.79,23.24,25.79,24.84Z"/><path class="cls-2" d="M26.47,11.93c0,.69-1.13,1.26-2.52,1.26a3.78,3.78,0,0,1-2-.5l-.51.18c-.87-.3-1.82-.56-2.8-.82a26.22,26.22,0,0,0,3.09-1,5.2,5.2,0,0,1,2-.37H24a4.33,4.33,0,0,1,.73.05C25.71,10.88,26.47,11.36,26.47,11.93Z"/><path class="cls-1" d="M.8.44H13.6a5.39,5.39,0,0,0-1.16,1.63H.8A.8.8,0,0,1,0,1.26.81.81,0,0,1,.8.44Z"/><path class="cls-1" d="M34.39,1.26a.8.8,0,0,1-.8.81H22A5.35,5.35,0,0,0,20.81.44H33.59A.81.81,0,0,1,34.39,1.26Z"/><path class="cls-1" d="M3.67,2.49h8.6A5.48,5.48,0,0,0,12,4.12H3.67a.8.8,0,0,1-.8-.81A.81.81,0,0,1,3.67,2.49Z"/><path class="cls-1" d="M31.52,3.31a.8.8,0,0,1-.8.81H22.45a5.48,5.48,0,0,0-.31-1.63h8.58A.81.81,0,0,1,31.52,3.31Z"/><path class="cls-1" d="M12,4.54a5.48,5.48,0,0,0,.31,1.63H6.54a.81.81,0,0,1-.8-.82.8.8,0,0,1,.8-.81Z"/><path class="cls-1" d="M28.65,5.35a.81.81,0,0,1-.8.82H22.14a5.48,5.48,0,0,0,.31-1.63h5.4A.8.8,0,0,1,28.65,5.35Z"/><path class="cls-1" d="M13.6,8.22H9.41A.8.8,0,0,1,8.85,8a.83.83,0,0,1-.24-.58.8.8,0,0,1,.8-.81h3A5.51,5.51,0,0,0,13.6,8.22Z"/><path class="cls-1" d="M25.78,7.4a.81.81,0,0,1-.8.82H20.81A5.48,5.48,0,0,0,22,6.59h3a.84.84,0,0,1,.57.23A.86.86,0,0,1,25.78,7.4Z"/><polygon class="cls-3" points="19.28 3.83 17.69 3.83 17.69 2.21 16.71 2.21 16.71 3.83 15.13 3.83 15.13 4.83 16.71 4.83 16.71 6.44 17.69 6.44 17.69 4.83 19.28 4.83 19.28 3.83"/><path class="cls-1" d="M14.75,36.64a9.11,9.11,0,0,0-4.19-2.92c-1.47-.51-3.51-1.11-4.35-2.19s-1.94-6-2.25-7.28a.14.14,0,0,1,.22-.15,4.18,4.18,0,0,1,1.36,2.18,14,14,0,0,0,1.9,4.07c.5.64,2,1.49,2,.81.06-1-2.19-3-2.11-4.33a.11.11,0,0,1,.2-.08,25,25,0,0,0,2.89,2.65c1.74,1.22,2.69,1,3.63,2.47S14.75,36.64,14.75,36.64Z"/><path class="cls-1" d="M20.32,36.64a9.13,9.13,0,0,1,4.18-2.92c1.48-.51,3.52-1.11,4.36-2.19s1.93-6,2.24-7.28a.14.14,0,0,0-.21-.15,4.12,4.12,0,0,0-1.36,2.18,14.29,14.29,0,0,1-1.9,4.07c-.5.64-2,1.49-2,.81-.06-1,2.19-3,2.11-4.33a.12.12,0,0,0-.21-.08,24.92,24.92,0,0,1-2.88,2.65c-1.74,1.22-2.69,1-3.63,2.47S20.32,36.64,20.32,36.64Z"/><path class="cls-1" d="M39.23,9.45H44.1v1.39H40.7v1.92h3.19v1.39H40.7v3.13H39.23Z"/><path class="cls-1" d="M49.94,13.91H46.6v2h3.69l-.18,1.39h-5V9.45h5v1.39H46.6v1.68h3.34Z"/><path class="cls-1" d="M53,10.84H50.83V9.45h5.75v1.39H54.46v6.44H53Z"/><path class="cls-1" d="M59.33,10.84H57.21V9.45H63v1.39H60.84v6.44H59.33Z"/><path class="cls-1" d="M63.81,9.45h1.51v6.44H68.8l-.17,1.39H63.81Z"/><path class="cls-1" d="M74.42,13.91H71.08v2h3.68l-.18,1.39h-5V9.45h5v1.39H71.08v1.68h3.34Z"/><path class="cls-1" d="M78.16,9.45h1.51v3.06h2.81V9.45H84v7.83H82.48V13.89H79.67v3.39H78.16Z"/><path class="cls-1" d="M90.39,13.91H87.05v2h3.68l-.18,1.39h-5V9.45h5v1.39H87.05v1.68h3.34Z"/><path class="cls-1" d="M93.29,15.47l-.55,1.81H91.26l2.37-7.83h1.9L98,17.28H96.41l-.57-1.81Zm2.22-1.38c-.49-1.66-.81-2.71-1-3.41h0c-.17.77-.52,2-.91,3.41Z"/><path class="cls-1" d="M98.81,9.45h1.51v6.44h3.48l-.17,1.39H98.81Z"/><path class="cls-1" d="M105,10.84h-2.12V9.45h5.74v1.39h-2.11v6.44H105Z"/><path class="cls-1" d="M109.49,9.45H111v3.06h2.81V9.45h1.51v7.83h-1.51V13.89H111v3.39h-1.51Z"/><path class="cls-1" d="M120.58,15.47,120,17.28h-1.48l2.37-7.83h1.9l2.47,7.83H123.7l-.57-1.81Zm2.22-1.38c-.49-1.66-.81-2.71-1-3.41h0c-.17.77-.52,2-.92,3.41Z"/><path class="cls-1" d="M126.1,17.28V9.45H128c.88,1.76,2.49,4.93,2.81,5.78h0c-.08-.81-.08-2.17-.08-3.46V9.45h1.37v7.83h-1.78c-.75-1.53-2.53-5.17-2.88-6.07h0c0,.68.07,2.29.07,3.69v2.38Z"/><path class="cls-1" d="M133.68,9.45h2.77c2,0,3.36,1.51,3.36,3.82s-1.29,4-3.43,4h-2.7Zm1.51,6.46h1.13c1.34,0,1.93-1.11,1.93-2.64,0-1.28-.55-2.45-1.92-2.45h-1.14Z"/><path class="cls-1" d="M143.42,9.45h1.51v3.06h2.81V9.45h1.51v7.83h-1.51V13.89h-2.81v3.39h-1.51Z"/><path class="cls-1" d="M155.64,13.91H152.3v2H156l-.18,1.39h-5V9.45h4.95v1.39H152.3v1.68h3.34Z"/><path class="cls-1" d="M158.55,15.47,158,17.28h-1.48l2.37-7.83h1.9l2.47,7.83h-1.59l-.57-1.81Zm2.22-1.38c-.49-1.66-.81-2.71-1-3.41h0c-.17.77-.52,2-.92,3.41Z"/><path class="cls-1" d="M164.07,9.45h1.51v6.44h3.48l-.17,1.39h-4.82Z"/><path class="cls-1" d="M39.51,21.21h1.72a1.31,1.31,0,0,1,1.48,1.32,1.33,1.33,0,0,1-1.51,1.35h-1v1.81h-.66Zm.66,2.12h1c.58,0,.88-.28.88-.79a.75.75,0,0,0-.86-.78h-1Z"/><path class="cls-1" d="M44.74,21.21h.66v1.85h2.22V21.21h.66v4.48h-.66V23.62H45.4v2.07h-.66Z"/><path class="cls-1" d="M51.66,25.69V24.06a.28.28,0,0,0,0-.13l-1.57-2.72h.76c.39.72,1,1.82,1.21,2.24.19-.41.82-1.53,1.22-2.24H54l-1.61,2.73a.17.17,0,0,0,0,.12v1.63Z"/><path class="cls-1" d="M56,24.43a1,1,0,0,0,1.09.79c.66,0,.92-.3.92-.71s-.21-.66-1.08-.87c-1.08-.27-1.43-.64-1.43-1.27S56,21.14,57,21.14a1.39,1.39,0,0,1,1.58,1.23h-.67a.82.82,0,0,0-.94-.7c-.51,0-.8.23-.8.63s.24.56,1,.75c1.27.31,1.51.81,1.51,1.39,0,.74-.55,1.31-1.66,1.31a1.53,1.53,0,0,1-1.72-1.32Z"/><path class="cls-1" d="M61.44,21.21v4.48h-.66V21.21Z"/><path class="cls-1" d="M67.73,23.43a2.1,2.1,0,0,1-2.1,2.32,2.07,2.07,0,0,1-2.06-2.3,2.1,2.1,0,0,1,2.11-2.31A2.06,2.06,0,0,1,67.73,23.43Zm-3.47,0c0,.95.47,1.76,1.39,1.76S67,24.36,67,23.43s-.44-1.73-1.39-1.73S64.26,22.49,64.26,23.43Z"/><path class="cls-1" d="M73.35,24.4l-.46,1.29h-.65l1.57-4.48h.82l1.63,4.48h-.7l-.47-1.29Zm1.58-.56c-.4-1.13-.63-1.76-.73-2.11h0c-.11.39-.37,1.14-.69,2.11Z"/><path class="cls-1" d="M78.16,25.69V21.21H79c.62,1,1.94,3.19,2.18,3.68h0c0-.56,0-1.28,0-2V21.21h.62v4.48H81c-.57-1-2-3.29-2.23-3.8h0c0,.49,0,1.28,0,2.09v1.71Z"/><path class="cls-1" d="M84.19,21.21h1.63a2,2,0,0,1,2.1,2.19,2.1,2.1,0,0,1-2.13,2.29h-1.6Zm.67,3.92h.89c1,0,1.49-.73,1.49-1.72a1.47,1.47,0,0,0-1.49-1.65h-.89Z"/><path class="cls-1" d="M93.63,25.69l-1.18-4.48h.7c.36,1.58.78,3.25.86,3.76h0c.12-.62.7-2.63,1-3.76h.63c.26,1,.84,3.15,1,3.74h0c.14-.82.73-2.86,1-3.74h.65l-1.29,4.48h-.7c-.26-1-.8-3-.92-3.61h0c-.14.69-.68,2.6-1,3.61Z"/><path class="cls-1" d="M103,23.63h-2.2v1.5h2.42l-.08.56h-3V21.21h3v.56h-2.31v1.29H103Z"/><path class="cls-1" d="M105.17,21.21h.66v3.92h2.31l-.09.56h-2.88Z"/><path class="cls-1" d="M110,21.21h.67v3.92H113l-.09.56H110Z"/><path class="cls-1" d="M114.79,25.69V21.21h.86c.63,1,1.95,3.19,2.19,3.68h0c0-.56,0-1.28,0-2V21.21h.61v4.48h-.8c-.57-1-2-3.29-2.23-3.8h0c0,.49,0,1.28,0,2.09v1.71Z"/><path class="cls-1" d="M123.67,23.63h-2.19v1.5h2.41l-.08.56h-3V21.21h3v.56h-2.3v1.29h2.19Z"/><path class="cls-1" d="M126.3,24.43a1,1,0,0,0,1.09.79c.66,0,.93-.3.93-.71s-.22-.66-1.09-.87c-1.08-.27-1.43-.64-1.43-1.27s.5-1.23,1.51-1.23a1.4,1.4,0,0,1,1.59,1.23h-.67a.83.83,0,0,0-.94-.7c-.52,0-.81.23-.81.63s.24.56,1,.75c1.27.31,1.51.81,1.51,1.39,0,.74-.55,1.31-1.65,1.31a1.52,1.52,0,0,1-1.72-1.32Z"/><path class="cls-1" d="M131.48,24.43a1,1,0,0,0,1.1.79c.66,0,.92-.3.92-.71s-.22-.66-1.09-.87c-1.08-.27-1.43-.64-1.43-1.27s.51-1.23,1.51-1.23a1.4,1.4,0,0,1,1.59,1.23h-.67a.83.83,0,0,0-.94-.7c-.51,0-.8.23-.8.63s.24.56,1,.75c1.28.31,1.51.81,1.51,1.39,0,.74-.54,1.31-1.65,1.31a1.53,1.53,0,0,1-1.72-1.32Z"/><path class="cls-1" d="M139.45,24.43a1,1,0,0,0,1.1.79c.66,0,.92-.3.92-.71s-.22-.66-1.08-.87c-1.08-.27-1.43-.64-1.43-1.27s.5-1.23,1.5-1.23a1.4,1.4,0,0,1,1.59,1.23h-.67a.82.82,0,0,0-.94-.7c-.51,0-.8.23-.8.63s.24.56,1,.75c1.27.31,1.51.81,1.51,1.39,0,.74-.55,1.31-1.66,1.31a1.53,1.53,0,0,1-1.72-1.32Z"/><path class="cls-1" d="M145.13,21.77h-1.42v-.56h3.5v.56h-1.42v3.92h-.66Z"/><path class="cls-1" d="M149.8,21.21V23.9c0,1,.55,1.3,1.1,1.3s1.09-.31,1.09-1.3V21.21h.67v2.66c0,1.46-.82,1.88-1.77,1.88a1.62,1.62,0,0,1-1.76-1.85V21.21Z"/><path class="cls-1" d="M155,21.21h1.62a2,2,0,0,1,2.11,2.19,2.11,2.11,0,0,1-2.13,2.29H155Zm.66,3.92h.89c1,0,1.49-.73,1.49-1.72a1.47,1.47,0,0,0-1.49-1.65h-.89Z"/><path class="cls-1" d="M161.54,21.21v4.48h-.66V21.21Z"/><path class="cls-1" d="M167.83,23.43a2.1,2.1,0,0,1-2.1,2.32,2.07,2.07,0,0,1-2.06-2.3,2.1,2.1,0,0,1,2.11-2.31A2.06,2.06,0,0,1,167.83,23.43Zm-3.47,0c0,.95.47,1.76,1.39,1.76s1.4-.83,1.4-1.76-.45-1.73-1.4-1.73S164.36,22.49,164.36,23.43Z"/></g></g></svg>